<?xml version="1.0" standalone="no"?>
<!DOCTYPE svg PUBLIC "-//W3C//DTD SVG 20010904//EN"
 "http://www.w3.org/TR/2001/REC-SVG-20010904/DTD/svg10.dtd">
<svg version="1.0" xmlns="http://www.w3.org/2000/svg"
 width="400.000000pt" height="400.000000pt" viewBox="0 0 400.000000 400.000000"
 preserveAspectRatio="xMidYMid meet">
<metadata>
Created by potrace 1.14, written by Peter Selinger 2001-2017
</metadata>
<g transform="translate(0.000000,400.000000) scale(0.100000,-0.100000)"
fill="#000000" stroke="none">
<path d="M1465 3950 c-27 -28 -56 -52 -65 -55 -9 -3 -28 -24 -43 -48 -47 -73
-89 -112 -137 -126 -25 -7 -55 -19 -68 -25 -21 -11 -51 -2 -245 71 -287 108
-382 135 -487 141 -76 4 -88 2 -112 -18 -53 -41 -32 -101 88 -255 74 -95 214
-234 374 -370 63 -54 117 -100 119 -102 2 -1 -20 -26 -50 -55 -56 -55 -136
-170 -204 -293 -55 -100 -88 -168 -91 -185 -1 -8 -12 -40 -24 -70 -36 -91 -70
-231 -75 -305 -2 -38 -4 -73 -4 -77 -1 -4 -7 -5 -13 -3 -8 3 -25 -16 -41 -45
-16 -27 -32 -50 -38 -50 -5 0 -9 -6 -9 -13 0 -7 -13 -34 -30 -60 -16 -26 -27
-47 -24 -47 2 0 -7 -17 -21 -37 -14 -21 -25 -43 -25 -50 0 -6 -10 -28 -21 -48
-12 -20 -19 -39 -16 -42 4 -3 11 7 17 22 6 15 13 25 16 23 2 -3 -4 -27 -14
-54 -11 -27 -27 -85 -38 -129 -10 -44 -20 -72 -22 -63 -2 10 4 45 12 78 18 71
19 81 6 60 -12 -18 -27 -96 -35 -171 -12 -130 48 -301 147 -416 l53 -62 14 29
c14 29 13 31 -28 72 -78 78 -104 156 -104 308 0 111 31 265 74 367 11 27 24
57 28 68 18 47 85 185 119 245 l37 65 5 -35 c3 -19 3 -42 -1 -50 -9 -19 -65
-256 -80 -340 l-12 -64 -19 39 c-10 22 -15 29 -12 15 3 -14 12 -34 18 -45 9
-14 11 -67 9 -183 -3 -106 -1 -162 6 -158 5 4 13 -4 16 -16 11 -38 30 -78 36
-78 15 0 28 77 19 115 -10 45 -4 58 14 32 15 -19 26 -22 26 -6 0 14 48 119 55
119 2 0 -6 -24 -19 -53 -13 -29 -29 -71 -36 -92 -6 -22 -20 -58 -30 -80 -30
-65 -56 -128 -70 -165 -7 -19 -20 -53 -30 -75 -25 -56 -42 -112 -51 -165 -4
-25 -13 -77 -20 -115 -12 -72 -5 -205 11 -205 4 0 6 -8 3 -18 -3 -12 11 -38
37 -71 23 -29 35 -49 25 -44 -9 5 -25 23 -36 39 -27 42 -24 8 5 -50 22 -43 22
-47 7 -56 -20 -10 -43 22 -66 93 -13 39 -14 39 -9 7 3 -19 15 -50 25 -68 10
-18 19 -35 19 -37 0 -3 -33 -27 -72 -54 -40 -27 -86 -62 -101 -79 -34 -36
-107 -152 -107 -170 0 -7 -12 -35 -26 -63 l-25 -51 23 4 c23 3 36 29 69 133
17 55 78 132 141 180 29 22 58 47 65 56 14 19 58 22 88 7 16 -9 18 -8 8 3 -7
7 -13 17 -13 22 0 5 22 -12 50 -39 54 -52 100 -82 100 -64 0 6 -11 16 -25 22
-14 6 -25 14 -25 18 0 4 21 -3 47 -16 51 -26 99 -31 106 -11 3 9 8 8 22 -3 17
-14 18 -13 12 3 -6 16 -5 16 20 0 26 -17 27 -17 20 1 -6 14 -4 17 9 12 38 -14
62 -17 68 -7 5 7 -2 11 -16 11 -17 0 -40 18 -74 56 -58 66 -79 100 -38 63 39
-35 73 -52 109 -54 17 -1 54 -12 83 -24 73 -29 55 -7 -24 31 -36 17 -70 40
-76 51 -9 17 -8 19 8 12 35 -14 49 -15 63 -6 11 7 7 15 -20 40 -19 17 -37 31
-41 31 -5 0 -8 5 -8 12 0 6 -7 19 -15 28 -37 40 -58 266 -34 353 6 22 13 37
15 34 3 -3 7 -40 9 -84 6 -163 71 -320 148 -358 28 -14 29 -14 22 8 -4 12 -7
31 -7 42 0 11 -9 61 -20 111 -14 63 -17 97 -11 109 9 16 11 16 16 1 5 -12 3
-15 -6 -10 -6 4 13 -18 43 -50 30 -32 69 -65 87 -72 44 -19 55 -18 44 3 -27
50 -41 110 -41 171 l1 67 25 -30 c14 -16 44 -54 66 -83 27 -37 43 -51 50 -44
7 7 -21 51 -90 140 -138 176 -210 315 -226 437 -9 69 -21 305 -21 410 0 76 4
108 18 135 33 65 51 81 97 87 39 6 43 4 36 -13 -15 -40 -27 -183 -21 -254 10
-115 69 -190 149 -190 53 0 115 85 116 160 l1 35 14 -30 c14 -29 15 -28 10 30
-11 121 -111 272 -213 324 -43 22 -116 28 -127 11 -3 -6 -15 -10 -26 -10 -22
0 -21 -8 -13 178 4 68 10 120 14 115 4 -4 13 -35 20 -68 12 -60 42 -129 59
-140 6 -3 19 4 29 16 l20 21 7 -21 c3 -12 11 -21 16 -21 6 0 7 9 4 21 -5 15
-4 19 4 15 15 -10 14 4 -3 23 -31 35 -82 267 -73 328 3 22 4 20 6 -10 2 -57
40 -237 58 -277 9 -19 26 -48 37 -65 16 -23 16 -27 3 -16 -9 7 -17 9 -17 3 0
-17 70 -73 119 -94 41 -18 101 -31 101 -21 0 2 -11 26 -25 54 -22 46 -24 60
-18 126 3 40 8 72 10 69 2 -2 10 -48 18 -102 12 -89 37 -174 50 -174 3 0 3 12
0 28 l-6 27 18 -27 c10 -16 22 -28 26 -28 5 0 1 12 -8 28 -16 24 -14 23 20 -8
l37 -35 -7 49 c-3 27 -9 55 -12 62 -3 8 -1 14 4 14 4 0 16 -23 26 -51 10 -28
20 -49 23 -47 6 6 -27 90 -43 109 -17 20 -16 26 1 26 8 0 23 -28 36 -64 12
-35 26 -66 31 -69 12 -7 11 -2 -7 41 -8 20 -13 39 -11 42 3 2 13 -19 23 -47
14 -40 27 -57 59 -76 43 -25 56 -17 32 20 -23 35 -88 363 -67 339 4 -4 16 -45
28 -91 23 -88 69 -206 101 -258 15 -24 25 -31 45 -29 17 2 30 -4 41 -21 8 -13
25 -24 38 -24 19 0 17 -4 -18 -36 -40 -36 -33 -37 17 -2 18 12 33 16 42 11 12
-6 1 -18 -44 -48 -58 -39 -88 -75 -32 -40 l27 18 -24 -27 c-31 -33 -22 -33 24
-1 54 36 175 79 175 61 0 -2 -15 -29 -34 -60 -40 -67 -60 -162 -54 -257 3 -52
10 -73 35 -110 18 -25 45 -52 62 -59 40 -16 138 -6 171 18 68 51 123 174 122
274 -1 21 3 38 8 38 14 0 23 -185 17 -384 -4 -160 -9 -206 -30 -286 -50 -188
-119 -333 -211 -440 -51 -59 -87 -81 -40 -25 22 28 49 64 58 80 l18 30 -24
-30 c-31 -40 -125 -134 -163 -163 l-30 -22 35 15 c19 9 43 20 53 26 11 6 21 8
24 5 3 -2 -14 -15 -36 -28 -22 -13 -41 -27 -41 -33 0 -5 5 -4 12 3 7 7 17 12
22 12 6 0 -9 -18 -32 -39 -43 -40 -98 -58 -149 -47 -34 7 -18 -20 24 -39 44
-21 132 -16 187 10 61 29 51 10 -11 -21 -51 -25 -69 -29 -146 -29 l-88 0 53
-47 c29 -25 66 -49 82 -52 74 -15 164 3 261 51 56 29 163 135 202 200 13 24
28 43 33 43 13 0 62 127 100 258 12 41 23 72 25 70 5 -5 -41 -170 -65 -235
-37 -98 -41 -116 -24 -109 13 5 14 -5 9 -67 -4 -39 -7 -137 -8 -217 -2 -119 1
-145 12 -145 12 0 14 35 12 212 l-2 213 26 24 c19 18 37 25 67 24 25 0 50 7
67 20 30 22 130 55 132 44 1 -4 1 -10 0 -14 -2 -13 11 -9 32 9 17 16 17 14 -3
-19 -28 -49 -82 -95 -144 -125 -34 -16 -41 -22 -21 -18 17 4 37 7 45 6 59 -4
124 1 141 10 38 20 29 3 -14 -28 -23 -17 -66 -39 -95 -48 -59 -20 -67 -27 -19
-18 57 10 128 56 180 116 28 32 56 56 63 53 6 -2 26 5 44 16 48 29 152 136
147 151 -2 6 6 32 18 57 12 25 30 69 40 98 9 29 19 51 21 49 3 -2 0 -16 -6
-31 -15 -39 -12 -55 5 -26 17 30 20 21 4 -14 -7 -14 -17 -22 -23 -19 -6 4 -5
-1 2 -10 12 -14 8 -26 -28 -86 -38 -65 -131 -171 -151 -171 -5 0 -9 -5 -9 -11
0 -5 5 -7 11 -4 5 4 21 8 35 10 50 5 113 62 171 155 12 19 22 31 23 25 0 -17
-53 -102 -88 -139 -18 -20 -28 -36 -23 -36 5 0 26 19 47 42 20 23 45 43 55 43
25 2 70 43 125 115 28 36 54 64 60 63 5 -1 16 4 24 11 30 26 44 27 17 2 -16
-15 -32 -24 -36 -22 -4 3 -8 -1 -8 -9 0 -25 12 -17 63 40 91 102 117 130 99
107 -28 -34 -13 -36 25 -2 18 16 35 28 37 26 8 -8 -35 -116 -68 -171 -41 -69
-120 -142 -180 -166 -24 -10 -36 -18 -26 -18 44 -2 130 61 186 134 50 66 75
117 92 185 7 30 18 62 25 70 31 40 74 132 90 195 28 110 24 326 -8 480 -15 66
-38 153 -52 194 -14 41 -24 76 -22 78 2 2 59 -10 127 -26 226 -56 349 -73 349
-47 0 10 -27 17 -94 25 -92 12 -277 52 -386 85 -232 68 -322 99 -311 106 8 4
-2 11 -28 17 -23 6 -38 7 -35 2 3 -5 -2 -9 -10 -9 -9 0 -16 6 -16 14 0 18 -22
26 -49 19 -12 -3 -27 -1 -34 4 -6 6 -25 13 -42 17 -65 16 -530 207 -710 291
-55 26 -143 67 -195 90 -291 131 -536 264 -760 411 -147 96 -296 204 -341 246
-9 9 -27 22 -39 28 -11 6 -18 15 -16 19 3 5 -4 17 -17 27 -18 16 -19 16 -8 2
66 -86 -258 186 -410 343 -86 90 -181 218 -197 267 -23 66 22 98 123 87 108
-12 255 -56 490 -148 50 -19 113 -43 141 -53 34 -12 56 -27 67 -46 9 -16 24
-31 34 -35 27 -10 66 -42 84 -69 8 -13 39 -39 67 -57 28 -17 102 -66 164 -108
62 -42 154 -102 203 -134 50 -32 113 -72 140 -90 28 -17 82 -52 120 -77 188
-121 356 -218 378 -218 4 0 48 -23 98 -51 91 -50 204 -110 289 -154 44 -23
307 -139 425 -188 100 -42 336 -116 389 -124 28 -3 56 -13 63 -22 18 -24 36 0
43 56 5 45 7 48 46 63 52 19 74 37 74 61 0 34 -4 36 243 -141 18 -13 20 -13
15 0 -2 8 -58 51 -124 96 l-119 82 -7 110 c-9 134 -18 157 -63 179 -19 9 -35
20 -35 24 0 4 -15 27 -33 51 l-34 44 -6 159 c-10 250 -22 199 -19 -76 l4 -250
-66 37 c-36 20 -66 34 -66 31 0 -3 29 -23 65 -45 64 -41 65 -41 62 -83 -3 -39
-5 -42 -44 -55 -39 -13 -45 -13 -80 7 -21 11 -56 31 -78 42 -22 12 -58 36 -81
52 -23 17 -70 50 -104 75 -63 44 -246 180 -489 362 -68 51 -125 98 -128 105
-9 24 -311 230 -499 341 -219 130 -502 251 -586 252 l-33 1 54 49 c30 28 48
50 40 50 -8 0 -37 -23 -64 -50z m-125 -203 c0 -2 -12 -14 -27 -28 l-28 -24 24
28 c23 25 31 32 31 24z m74 -30 c-2 -7 -14 -13 -25 -13 -19 0 -19 1 -3 13 10
7 21 13 26 13 4 0 5 -6 2 -13z m-40 -46 c19 -7 19 -8 -1 -28 -12 -12 -19 -24
-16 -27 3 -2 2 -10 -2 -17 -6 -8 -12 -4 -22 14 -11 22 -11 30 -1 47 14 22 14
22 42 11z m202 -33 l29 -33 -32 29 c-18 17 -33 31 -33 33 0 8 8 1 36 -29z
m-158 -12 c-16 -8 -34 -18 -40 -21 -7 -4 -2 3 12 14 14 11 32 21 40 21 8 0 3
-7 -12 -14z m221 -53 l-1 -48 -9 35 c-4 19 -6 41 -4 48 9 25 15 10 14 -35z
m238 41 c-3 -3 -12 -4 -19 -1 -8 3 -5 6 6 6 11 1 17 -2 13 -5z m-402 -13 c3
-5 1 -12 -5 -16 -5 -3 -10 -2 -10 3 0 6 -9 8 -20 5 -11 -3 -20 -10 -20 -15 0
-6 7 -7 16 -4 29 11 4 -11 -27 -24 -26 -11 -32 -11 -40 1 -14 23 -11 27 34 42
51 19 64 20 72 8z m442 3 c-3 -3 -12 -4 -19 -1 -8 3 -5 6 6 6 11 1 17 -2 13
-5z m-227 -53 c-5 -11 -15 -23 -21 -27 -6 -3 -3 5 6 20 20 30 30 35 15 7z m84
4 c-4 -8 -1 -15 5 -15 7 0 14 7 17 15 12 29 23 14 29 -38 5 -38 2 -62 -9 -87
-9 -19 -13 -24 -10 -11 4 17 2 22 -7 19 -8 -3 -12 -14 -11 -24 3 -12 0 -16 -6
-9 -10 11 -23 151 -14 160 9 9 12 5 6 -10z m376 -46 c0 -5 -11 3 -25 17 -14
14 -25 28 -25 31 0 4 11 -4 25 -17 14 -13 25 -27 25 -31z m-523 -21 c-3 -7 -5
-2 -5 12 0 14 2 19 5 13 2 -7 2 -19 0 -25z m448 -30 c15 -6 11 -7 -14 -3 -18
3 -46 5 -62 5 -16 0 -29 5 -29 10 0 11 71 3 105 -12z m95 -13 c0 -5 -5 -3 -10
5 -5 8 -10 20 -10 25 0 6 5 3 10 -5 5 -8 10 -19 10 -25z m-55 -73 c-3 -3 -11
0 -18 7 -9 10 -8 11 6 5 10 -3 15 -9 12 -12z m109 -27 l17 -30 -20 24 c-12 13
-21 28 -21 34 0 12 0 11 24 -28z m-344 -59 c0 -2 -7 -7 -16 -10 -8 -3 -12 -2
-9 4 6 10 25 14 25 6z m334 -62 c47 -20 8 -15 -49 7 -39 15 -42 17 -16 13 19
-4 48 -12 65 -20z m166 -70 c0 -2 -9 0 -20 6 -11 6 -20 13 -20 16 0 2 9 0 20
-6 11 -6 20 -13 20 -16z m35 -22 c-3 -3 -11 0 -18 7 -9 10 -8 11 6 5 10 -3 15
-9 12 -12z m-74 -199 c13 -16 12 -17 -3 -4 -10 7 -18 15 -18 17 0 8 8 3 21
-13z m659 2 c7 -8 19 -15 26 -15 24 0 75 -90 72 -127 -3 -43 -12 -34 -49 44
-17 36 -42 76 -56 89 -14 13 -21 24 -16 24 6 0 16 -7 23 -15z m5 -59 c15 -36
15 -37 -5 -26 -13 7 -20 21 -20 42 0 37 4 35 25 -16z m-184 17 c13 -16 12 -17
-3 -4 -17 13 -22 21 -14 21 2 0 10 -8 17 -17z m130 -20 l24 -26 -27 19 c-15
10 -28 22 -28 27 0 12 5 8 31 -20z m-2316 -113 c-47 -91 -123 -308 -151 -430
-9 -41 -19 -69 -21 -62 -11 31 46 234 107 381 32 80 99 205 106 199 2 -2 -16
-42 -41 -88z m2405 30 c6 -11 9 -20 8 -20 -2 0 -11 9 -21 20 -9 11 -13 20 -7
20 5 0 14 -9 20 -20z m634 -126 c3 -8 2 -12 -4 -9 -6 3 -10 10 -10 16 0 14 7
11 14 -7z m-32 -89 c9 -24 12 -48 8 -60 -8 -21 -9 -20 -25 59 -3 13 -8 32 -11
43 -13 36 13 -2 28 -42z m-127 -1 c9 -15 12 -23 6 -20 -11 7 -35 46 -28 46 3
0 12 -12 22 -26z m47 -26 c-6 -6 -7 0 -4 19 5 21 7 23 10 9 2 -10 0 -22 -6
-28z m48 -81 c0 -11 -57 34 -64 51 -3 7 10 0 29 -15 19 -16 35 -32 35 -36z
m-2253 -249 c-3 -8 -6 -5 -6 6 -1 11 2 17 5 13 3 -3 4 -12 1 -19z m265 -167
c15 -35 26 -66 24 -68 -6 -6 -30 41 -55 108 -22 56 -28 94 -9 49 6 -14 24 -54
40 -89z m-213 49 c0 -9 -4 -8 -9 5 -5 11 -9 27 -9 35 0 9 4 8 9 -5 5 -11 9
-27 9 -35z m355 24 c3 -8 2 -12 -4 -9 -6 3 -10 10 -10 16 0 14 7 11 14 -7z
m-30 -84 c3 -14 -5 -2 -18 25 -14 28 -25 55 -25 60 0 15 36 -56 43 -85z m44
35 c-3 -3 -9 2 -12 12 -6 14 -5 15 5 6 7 -7 10 -15 7 -18z m1322 -25 c0 -5 -2
-10 -4 -10 -3 0 -8 5 -11 10 -3 6 -1 10 4 10 6 0 11 -4 11 -10z m-1259 -105
c0 -5 4 -2 8 8 6 17 8 16 20 -9 11 -25 11 -26 -5 -13 -16 12 -17 12 -11 -3 3
-10 5 -18 2 -18 -6 0 -65 106 -65 116 1 11 50 -68 51 -81z m1346 79 c-3 -3
-12 -4 -19 -1 -8 3 -5 6 6 6 11 1 17 -2 13 -5z m-1356 -171 c12 -16 12 -16 -8
0 -20 17 -83 134 -83 153 0 5 18 -24 39 -63 21 -40 45 -81 52 -90z m-147 75
l27 -43 -30 35 c-27 32 -38 50 -27 50 2 0 15 -19 30 -42z m-1116 -148 c6 -36
8 -80 5 -98 -17 -103 -49 30 -37 157 8 94 8 94 32 -59z m1477 22 c-5 -6 -45
23 -50 36 -3 7 8 3 24 -10 15 -13 27 -24 26 -26z m1484 -37 c0 -13 -5 -8 -14
15 -18 46 -18 61 0 30 8 -14 14 -34 14 -45z m-2443 -58 c2 -7 -2 -26 -10 -41
-14 -28 -12 -56 4 -56 4 0 11 -8 14 -17 6 -16 6 -16 -12 0 -10 9 -24 17 -30
17 -7 0 -9 10 -6 29 3 16 1 31 -4 35 -6 3 -8 15 -5 26 6 22 41 27 49 7z m2496
-182 c2 -11 7 -23 12 -27 6 -4 12 -61 14 -127 3 -92 0 -137 -13 -193 -22 -88
-64 -208 -75 -208 -4 0 1 30 12 68 27 91 39 151 37 187 -1 16 3 50 9 75 14 55
15 182 3 196 -9 8 -42 169 -40 190 1 10 37 -129 41 -161z m-2422 104 c0 -6 -4
-7 -10 -4 -5 3 -10 11 -10 16 0 6 5 7 10 4 6 -3 10 -11 10 -16z m-940 -19 c0
-5 -2 -10 -4 -10 -3 0 -8 5 -11 10 -3 6 -1 10 4 10 6 0 11 -4 11 -10z m800
-19 c0 -6 -4 -13 -10 -16 -14 -9 12 -46 28 -40 7 3 10 0 7 -6 -4 -6 2 -9 17
-7 35 5 48 17 41 36 -6 15 -5 15 11 -1 18 -17 18 -18 0 -32 -29 -22 -72 -18
-99 10 -25 24 -31 45 -18 58 9 10 23 8 23 -2z m988 -24 c2 -10 -3 -27 -12 -36
-9 -10 -14 -25 -10 -35 4 -10 1 -16 -8 -16 -23 0 -29 12 -15 28 9 12 9 16 0
19 -14 5 -18 45 -6 57 13 13 48 1 51 -17z m-1318 3 c0 -5 -4 -10 -10 -10 -5 0
-10 5 -10 10 0 6 5 10 10 10 6 0 10 -4 10 -10z m1180 -24 c0 -2 -8 -10 -17
-17 -16 -13 -17 -12 -4 4 13 16 21 21 21 13z m1629 -78 c0 -16 -3 -28 -9 -28
-6 0 -9 25 -9 58 1 47 3 52 9 27 4 -16 8 -42 9 -57z m-1374 42 c3 -5 2 -10 -4
-10 -5 0 -13 5 -16 10 -3 6 -2 10 4 10 5 0 13 -4 16 -10z m1275 -20 c0 -5 -4
-10 -10 -10 -5 0 -10 5 -10 10 0 6 5 10 10 10 6 0 10 -4 10 -10z m-1540 -60
c21 21 50 27 50 10 0 -5 -3 -9 -7 -8 -13 4 -57 -31 -50 -38 4 -4 17 1 29 12
l23 19 -18 -21 c-16 -20 -16 -21 0 -36 11 -9 32 -15 51 -13 18 1 35 -1 38 -6
3 -5 -3 -6 -12 -2 -12 4 -15 3 -10 -5 10 -16 -7 -15 -49 2 -32 14 -95 87 -95
110 1 6 7 -1 16 -16 14 -27 14 -28 34 -8z m87 24 c-3 -3 -12 -4 -19 -1 -8 3
-5 6 6 6 11 1 17 -2 13 -5z m40 0 c-3 -3 -12 -4 -19 -1 -8 3 -5 6 6 6 11 1 17
-2 13 -5z m43 -9 c19 -22 8 -25 -12 -3 -10 10 -14 18 -9 18 5 0 14 -7 21 -15z
m1547 -42 c-3 -10 -5 -2 -5 17 0 19 2 27 5 18 2 -10 2 -26 0 -35z m-1525 -6
c-7 -8 -9 -16 -6 -20 3 -3 -6 -13 -20 -23 -15 -9 -29 -14 -33 -11 -3 4 6 12
20 18 15 7 24 16 21 21 -3 4 -10 6 -15 3 -5 -3 -6 1 -2 10 4 13 8 14 14 4 6
-10 9 -9 15 4 3 10 9 16 12 13 3 -3 0 -12 -6 -19z m1443 -91 c-7 -75 -38 -213
-51 -224 -4 -4 -4 4 0 18 13 46 36 205 36 248 0 29 4 41 11 36 7 -4 9 -30 4
-78z m-803 32 c-9 -9 -12 -7 -12 12 0 19 3 21 12 12 9 -9 9 -15 0 -24z m675
-100 c-3 -8 -6 -5 -6 6 -1 11 2 17 5 13 3 -3 4 -12 1 -19z m-90 -50 c-3 -7 -5
-2 -5 12 0 14 2 19 5 13 2 -7 2 -19 0 -25z m278 -8 c-9 -41 -17 -33 -9 9 4 17
9 30 11 27 3 -2 2 -19 -2 -36z m-215 -37 c-11 -17 -11 -17 -6 0 3 10 6 24 7
30 0 9 2 9 5 0 3 -7 0 -20 -6 -30z m-750 17 c0 -5 -4 -10 -10 -10 -5 0 -10 5
-10 10 0 6 5 10 10 10 6 0 10 -4 10 -10z m677 -12 c-3 -8 -6 -5 -6 6 -1 11 2
17 5 13 3 -3 4 -12 1 -19z m-353 3 c3 -5 -1 -14 -8 -20 -16 -13 -32 2 -21 19
8 12 22 13 29 1z m-257 -33 c-3 -8 -6 -5 -6 6 -1 11 2 17 5 13 3 -3 4 -12 1
-19z m859 -55 c-14 -38 -35 -79 -46 -93 -13 -16 -9 -4 10 33 16 32 35 76 41
98 7 21 14 37 17 34 3 -3 -7 -35 -22 -72z m-2756 37 c0 -5 -5 -10 -11 -10 -5
0 -7 5 -4 10 3 6 8 10 11 10 2 0 4 -4 4 -10z m1887 -22 c-3 -8 -6 -5 -6 6 -1
11 2 17 5 13 3 -3 4 -12 1 -19z m715 -21 c-7 -8 -8 -18 -4 -22 4 -5 1 -5 -6
-1 -9 5 -9 12 -1 27 6 12 13 18 16 15 3 -3 1 -12 -5 -19z m-81 -69 c-11 -18
-21 -29 -21 -25 0 13 33 67 38 62 3 -2 -5 -19 -17 -37z m60 -1 c-10 -9 -11 -8
-5 6 3 10 9 15 12 12 3 -3 0 -11 -7 -18z m-921 -79 c-16 -94 -23 -81 -8 16 7
42 14 72 17 65 2 -7 -2 -43 -9 -81z m191 45 c-12 -20 -14 -14 -5 12 4 9 9 14
11 11 3 -2 0 -13 -6 -23z m800 0 c-12 -20 -14 -14 -5 12 4 9 9 14 11 11 3 -2
0 -13 -6 -23z m-89 -15 c-8 -8 -9 -4 -5 13 4 13 8 18 11 10 2 -7 -1 -18 -6
-23z m-152 -14 c-5 -19 -11 -39 -15 -42 -6 -6 0 32 11 66 8 27 11 10 4 -24z
m50 -31 c-11 -17 -11 -17 -6 0 3 10 6 24 7 30 0 9 2 9 5 0 3 -7 0 -20 -6 -30z
m171 20 c-5 -10 -17 -27 -26 -38 -16 -19 -17 -19 -3 5 26 46 29 50 34 50 3 0
0 -8 -5 -17z m29 -2 c-5 -11 -15 -23 -21 -27 -6 -3 -3 5 6 20 20 30 30 35 15
7z m-2927 -276 c19 -19 22 -29 6 -19 -14 8 -4 -41 21 -108 l18 -47 -34 -7
c-48 -9 -42 -24 9 -24 40 -1 44 -4 81 -57 l39 -56 -38 6 c-20 3 -48 13 -62 22
-59 39 -113 178 -113 291 0 31 -6 54 -17 67 -17 18 -17 20 -1 31 10 8 24 42
32 82 26 121 31 117 37 -28 5 -108 9 -140 22 -153z m2848 244 c-25 -41 -27
-56 -4 -38 15 13 15 12 5 -6 -14 -25 -60 -75 -70 -75 -4 0 -18 7 -30 16 -21
14 -22 14 -22 -5 0 -33 -73 -161 -93 -161 -5 0 -3 8 6 18 20 22 21 29 4 29 -8
0 -14 -5 -15 -11 -3 -35 -11 -51 -30 -64 -19 -13 -18 -8 10 49 17 35 49 84 71
109 22 25 53 69 69 98 28 49 52 76 28 31 -6 -11 -9 -25 -7 -32 2 -7 12 3 21
21 10 19 20 32 23 29 2 -3 0 -14 -6 -25 -15 -28 -14 -39 5 -46 12 -5 15 -2 10
10 -6 15 33 99 41 90 2 -2 -5 -19 -16 -37z m-93 1 c-7 -10 -14 -17 -17 -15 -4
4 18 35 25 35 2 0 -1 -9 -8 -20z m-124 -107 c-49 -124 -138 -244 -208 -280
-29 -15 -29 -14 10 23 22 22 49 51 59 66 9 15 21 26 25 23 5 -3 12 0 16 6 4 8
3 9 -4 5 -17 -11 -14 5 7 37 13 20 20 25 24 15 5 -14 70 117 83 167 4 16 9 25
11 18 2 -6 -8 -42 -23 -80z m-558 40 c-8 -15 -15 -25 -16 -21 0 12 23 58 27
54 3 -2 -2 -17 -11 -33z m596 -55 c-8 -8 -9 -4 -5 13 4 13 8 18 11 10 2 -7 -1
-18 -6 -23z m-648 -59 c-47 -96 -113 -189 -158 -222 -50 -39 -53 -33 -5 11 57
51 111 126 156 216 20 41 39 74 41 72 2 -2 -13 -37 -34 -77z m562 27 c-8 -20
-17 -36 -20 -36 -3 0 -2 10 3 23 5 12 12 31 15 41 4 10 9 16 12 14 3 -3 -2
-22 -10 -42z m-128 -76 c-39 -75 -113 -160 -138 -160 -6 0 9 27 32 59 24 33
49 68 56 78 7 10 5 3 -4 -15 -8 -19 -13 -36 -10 -39 5 -6 32 35 73 114 15 28
29 50 31 48 2 -2 -16 -40 -40 -85z m-258 -24 c0 -2 -8 -10 -17 -17 -16 -13
-17 -12 -4 4 13 16 21 21 21 13z m101 -75 c-18 -27 -38 -55 -46 -61 -8 -7 5
17 28 52 23 36 44 63 46 62 2 -2 -11 -26 -28 -53z m-141 45 c0 -2 -8 -10 -17
-17 -16 -13 -17 -12 -4 4 13 16 21 21 21 13z m103 -47 c-10 -17 -24 -36 -32
-42 -8 -7 -2 7 14 31 32 49 45 57 18 11z m-2214 -34 c0 -5 -4 -3 -9 5 -5 8 -9
22 -9 30 0 16 17 -16 18 -35z m2118 -33 c-20 -21 -37 -42 -37 -48 0 -9 -61
-44 -76 -44 -4 0 18 21 47 48 29 26 60 55 69 64 8 9 19 17 25 17 5 1 -8 -16
-28 -37z m-2093 -18 c3 -8 2 -12 -4 -9 -6 3 -10 10 -10 16 0 14 7 11 14 -7z
m2136 13 c0 -2 -12 -14 -27 -28 l-28 -24 24 28 c23 25 31 32 31 24z m20 -33
c-8 -8 -23 -20 -34 -26 -19 -10 -18 -8 3 16 26 27 53 37 31 10z m-2121 -44
l23 -35 -26 30 c-14 17 -26 34 -26 39 0 11 0 11 29 -34z m76 -20 l20 -25 -22
19 c-13 11 -23 24 -23 29 0 6 1 8 3 6 1 -2 11 -15 22 -29z m-14 -27 c13 -16
12 -17 -3 -4 -10 7 -18 15 -18 17 0 8 8 3 21 -13z m-20 -10 c13 -16 12 -17 -3
-4 -17 13 -22 21 -14 21 2 0 10 -8 17 -17z m1479 -32 c0 -6 -4 -13 -10 -16 -5
-3 -10 1 -10 9 0 9 5 16 10 16 6 0 10 -4 10 -9z"/>
<path d="M1375 3560 c3 -5 8 -10 11 -10 2 0 4 5 4 10 0 6 -5 10 -11 10 -5 0
-7 -4 -4 -10z"/>
<path d="M1781 3514 c0 -11 3 -14 6 -6 3 7 2 16 -1 19 -3 4 -6 -2 -5 -13z"/>
<path d="M1793 3473 c-18 -7 -16 -23 2 -23 8 0 15 7 15 15 0 8 -1 15 -2 14 -2
0 -9 -3 -15 -6z"/>
<path d="M3192 748 c-7 -7 -12 -18 -12 -24 0 -7 -9 -15 -19 -19 -11 -3 -22
-13 -25 -21 -3 -8 -2 -13 3 -9 5 3 11 0 13 -7 2 -6 16 10 31 37 27 48 31 65 9
43z"/>
<path d="M3036 645 c-9 -26 -7 -32 5 -12 6 10 9 21 6 23 -2 3 -7 -2 -11 -11z"/>
<path d="M2855 543 l-17 -28 23 22 c12 12 20 25 17 28 -3 3 -13 -7 -23 -22z"/>
<path d="M2896 3943 c218 -158 430 -356 574 -536 70 -88 93 -104 44 -31 -33
48 -117 146 -209 243 -133 139 -433 381 -473 381 -8 0 21 -26 64 -57z"/>
<path d="M3060 3756 c0 -2 8 -10 18 -17 15 -13 16 -12 3 4 -13 16 -21 21 -21
13z"/>
<path d="M3154 3673 c22 -24 42 -40 45 -38 2 3 2 6 0 8 -2 1 -22 18 -44 37
l-40 35 39 -42z"/>
<path d="M3145 3562 c49 -50 92 -88 94 -86 6 6 -116 130 -154 156 -16 12 10
-20 60 -70z"/>
<path d="M642 3522 c41 -50 178 -154 178 -135 0 4 -21 21 -48 38 -26 16 -72
52 -102 80 -36 33 -45 39 -28 17z"/>
<path d="M1195 3505 c22 -19 49 -41 60 -47 37 -21 0 15 -52 51 l-48 33 40 -37z"/>
<path d="M780 3523 c0 -5 9 -18 20 -28 11 -10 20 -14 20 -8 0 5 -9 18 -20 28
-11 10 -20 14 -20 8z"/>
<path d="M980 3507 c0 -3 12 -12 26 -22 15 -9 23 -12 20 -6 -7 11 -46 35 -46
28z"/>
<path d="M1100 3491 c45 -38 100 -74 105 -69 5 5 -35 34 -100 72 l-30 18 25
-21z"/>
<path d="M900 3486 c0 -2 12 -12 28 -21 l27 -18 -19 21 c-17 20 -36 29 -36 18z"/>
<path d="M850 3455 c13 -14 28 -25 34 -25 6 0 -1 11 -16 25 -15 14 -30 25 -34
25 -4 0 3 -11 16 -25z"/>
<path d="M1040 3463 c0 -4 12 -16 25 -26 14 -10 25 -14 25 -10 0 4 -12 16 -25
26 -14 10 -25 14 -25 10z"/>
<path d="M3377 3408 c46 -66 125 -158 136 -158 5 0 -19 30 -52 66 -34 37 -61
72 -61 78 -1 12 -45 66 -55 66 -3 0 11 -24 32 -52z"/>
<path d="M987 3419 c12 -12 25 -20 28 -17 3 3 -7 13 -22 23 l-28 17 22 -23z"/>
<path d="M3175 3368 c39 -36 72 -64 75 -61 5 5 -67 72 -115 106 -16 11 2 -9
40 -45z"/>
<path d="M905 3410 c3 -5 16 -15 28 -21 22 -12 22 -12 3 10 -19 21 -43 30 -31
11z"/>
<path d="M1110 3405 c7 -8 17 -15 22 -15 6 0 5 7 -2 15 -7 8 -17 15 -22 15 -6
0 -5 -7 2 -15z"/>
<path d="M3281 3394 c0 -5 21 -27 46 -49 26 -22 44 -35 42 -29 -6 14 -89 88
-88 78z"/>
<path d="M855 3360 c10 -11 20 -20 23 -20 3 0 -3 9 -13 20 -10 11 -20 20 -23
20 -3 0 3 -9 13 -20z"/>
<path d="M985 3350 c3 -5 8 -10 11 -10 2 0 4 5 4 10 0 6 -5 10 -11 10 -5 0 -7
-4 -4 -10z"/>
<path d="M2895 3333 c6 -5 33 -27 60 -47 l50 -38 -40 37 c-22 20 -49 41 -60
47 -11 6 -15 6 -10 1z"/>
<path d="M945 3285 c22 -20 49 -41 60 -46 23 -12 -26 32 -70 62 -22 15 -19 10
10 -16z"/>
<path d="M3269 3262 c6 -12 16 -24 22 -28 8 -4 8 -1 0 14 -6 12 -16 24 -22 28
-8 4 -8 1 0 -14z"/>
<path d="M3420 3246 c0 -2 17 -16 38 -31 l37 -28 -29 31 c-26 28 -46 40 -46
28z"/>
<path d="M870 3230 c0 -5 5 -10 11 -10 5 0 7 5 4 10 -3 6 -8 10 -11 10 -2 0
-4 -4 -4 -10z"/>
<path d="M3336 3179 c10 -17 140 -130 164 -143 16 -8 -42 46 -124 117 -28 23
-46 35 -40 26z"/>
<path d="M3111 3133 c0 -5 19 -24 42 -43 l42 -34 -40 42 c-40 43 -46 47 -44
35z"/>
<path d="M3292 3105 c21 -22 39 -37 42 -34 2 2 -14 19 -37 38 l-42 34 37 -38z"/>
<path d="M2980 3096 c0 -2 8 -10 18 -17 15 -13 16 -12 3 4 -13 16 -21 21 -21
13z"/>
<path d="M3030 3055 c0 -2 42 -37 93 -77 50 -40 136 -112 190 -161 89 -79 191
-146 204 -133 3 2 -17 16 -44 29 -26 14 -91 62 -143 106 -104 89 -300 244
-300 236z"/>
<path d="M3364 3039 c17 -27 133 -105 142 -96 3 2 -19 19 -48 37 -29 18 -66
44 -82 59 l-29 26 17 -26z"/>
<path d="M3245 2991 c40 -42 105 -95 92 -74 -4 6 -35 35 -69 64 -59 50 -61 50
-23 10z"/>
<path d="M2220 2857 c6 -7 236 -146 323 -196 98 -56 63 -26 -55 47 -112 68
-278 161 -268 149z"/>
<path d="M2400 2677 c0 -2 14 -13 30 -25 17 -13 30 -19 30 -14 0 4 -13 16 -30
25 -16 10 -30 16 -30 14z"/>
<path d="M2500 2611 c24 -20 40 -26 40 -16 0 2 -15 12 -32 20 l-33 16 25 -20z"/>
<path d="M2615 2620 c3 -5 8 -10 11 -10 2 0 4 5 4 10 0 6 -5 10 -11 10 -5 0
-7 -4 -4 -10z"/>
<path d="M2402 2574 c10 -10 20 -15 24 -12 3 4 -5 12 -18 18 -22 12 -22 12 -6
-6z"/>
<path d="M2562 2574 c10 -10 20 -15 24 -12 3 4 -5 12 -18 18 -22 12 -22 12 -6
-6z"/>
<path d="M2705 2580 c7 -11 105 -63 110 -58 2 2 -24 18 -56 36 -33 18 -57 28
-54 22z"/>
<path d="M2445 2552 c12 -13 165 -106 217 -133 40 -20 73 -25 63 -9 -3 6 -14
10 -23 10 -10 0 -46 17 -82 38 -121 71 -185 105 -175 94z"/>
<path d="M2610 2551 c0 -4 46 -30 102 -57 129 -62 126 -60 110 -41 -8 9 -34
24 -59 33 -25 10 -70 30 -99 46 -30 15 -54 24 -54 19z"/>
<path d="M2854 2506 c11 -9 27 -16 35 -15 14 0 14 1 1 6 -8 3 -24 10 -35 15
-20 9 -20 9 -1 -6z"/>
<path d="M2940 2476 c42 -17 58 -20 45 -7 -6 5 -26 12 -45 15 l-35 6 35 -14z"/>
<path d="M450 2449 c-7 -11 -10 -23 -7 -25 2 -2 9 7 15 21 14 30 7 33 -8 4z"/>
<path d="M2495 2420 c17 -11 35 -20 40 -20 6 0 -5 9 -23 20 -42 26 -56 26 -17
0z"/>
<path d="M2550 2396 c0 -3 27 -19 60 -36 33 -17 60 -28 60 -25 0 2 -24 17 -52
32 -68 36 -68 36 -68 29z"/>
<path d="M3730 2385 c-23 -9 -28 -14 -15 -14 11 0 31 6 45 14 31 18 16 18 -30
0z"/>
<path d="M411 2349 c-6 -18 -9 -34 -7 -36 2 -2 9 10 15 28 6 18 9 34 7 36 -2
2 -9 -10 -15 -28z"/>
<path d="M3274 2335 c11 -8 24 -15 30 -15 5 0 1 7 -10 15 -10 8 -23 14 -29 14
-5 0 -1 -6 9 -14z"/>
<path d="M3830 2309 c-19 -16 -29 -29 -23 -29 15 0 70 47 63 53 -3 3 -21 -8
-40 -24z"/>
<path d="M3353 2299 c22 -11 41 -18 44 -15 5 5 -62 36 -76 36 -3 -1 11 -10 32
-21z"/>
<path d="M391 2284 c0 -11 3 -14 6 -6 3 7 2 16 -1 19 -3 4 -6 -2 -5 -13z"/>
<path d="M3890 2249 c-23 -29 -27 -38 -13 -30 21 11 58 60 50 67 -2 2 -19 -14
-37 -37z"/>
<path d="M3449 2259 c25 -11 52 -18 60 -17 9 2 -7 11 -36 21 -68 22 -79 21
-24 -4z"/>
<path d="M3685 2250 c-13 -6 -15 -9 -5 -9 8 0 22 4 30 9 18 12 2 12 -25 0z"/>
<path d="M3987 2233 c-4 -3 -7 -13 -7 -21 0 -9 -8 -24 -17 -34 -15 -17 -15
-18 -1 -13 9 4 22 20 28 36 12 29 10 46 -3 32z"/>
<path d="M363 2195 c-3 -9 -3 -18 -1 -21 3 -3 8 4 11 16 6 23 -1 27 -10 5z"/>
<path d="M3449 2180 c24 -11 46 -18 49 -16 5 6 -65 36 -82 36 -6 0 9 -9 33
-20z"/>
<path d="M3555 2140 c22 -11 47 -19 55 -19 17 0 -33 23 -71 33 -13 3 -6 -3 16
-14z"/>
<path d="M3885 2130 c-3 -5 -1 -10 4 -10 6 0 11 5 11 10 0 6 -2 10 -4 10 -3 0
-8 -4 -11 -10z"/>
<path d="M3631 2116 c2 -2 22 -6 44 -9 28 -5 34 -4 20 3 -19 8 -73 14 -64 6z"/>
<path d="M3835 2110 c-13 -6 -15 -9 -5 -9 8 0 22 4 30 9 18 12 2 12 -25 0z"/>
<path d="M921 2056 c37 -8 84 -23 105 -34 48 -24 120 -100 158 -165 37 -62 45
-61 10 2 -62 115 -178 199 -283 207 l-56 4 66 -14z"/>
<path d="M3953 2023 c9 -2 25 -2 35 0 9 3 1 5 -18 5 -19 0 -27 -2 -17 -5z"/>
<path d="M3230 2016 c0 -2 9 -6 20 -9 11 -3 18 -1 14 4 -5 9 -34 13 -34 5z"/>
<path d="M3288 1993 c7 -3 16 -2 19 1 4 3 -2 6 -13 5 -11 0 -14 -3 -6 -6z"/>
<path d="M3888 1933 c7 -3 16 -2 19 1 4 3 -2 6 -13 5 -11 0 -14 -3 -6 -6z"/>
<path d="M342 1885 c0 -11 3 -29 8 -40 11 -25 11 1 0 35 -6 20 -8 21 -8 5z"/>
<path d="M191 1754 c0 -11 3 -14 6 -6 3 7 2 16 -1 19 -3 4 -6 -2 -5 -13z"/>
<path d="M949 1488 c34 -22 142 -40 111 -18 -8 5 -25 10 -36 10 -12 0 -38 7
-57 15 -51 21 -58 18 -18 -7z"/>
<path d="M397 1325 c3 -38 9 -77 14 -85 11 -19 -1 107 -12 135 -5 11 -6 -11
-2 -50z"/>
<path d="M2035 1319 c-27 -10 -58 -17 -67 -15 -10 2 -18 -1 -18 -6 0 -13 133
-1 138 12 2 5 10 6 18 3 8 -3 14 1 14 11 0 20 -20 19 -85 -5z"/>
<path d="M1190 1285 c-7 -9 -11 -18 -8 -20 3 -3 11 1 18 10 7 9 11 18 8 20 -3
3 -11 -1 -18 -10z"/>
<path d="M2182 1130 c0 -14 2 -19 5 -12 2 6 2 18 0 25 -3 6 -5 1 -5 -13z"/>
<path d="M2166 1078 c-3 -13 -5 -32 -5 -43 1 -11 5 -2 10 19 10 42 6 62 -5 24z"/>
<path d="M1160 1009 c0 -10 44 -23 61 -17 6 2 -5 9 -25 15 -20 6 -36 7 -36 2z"/>
<path d="M2137 963 c-23 -71 -20 -91 4 -23 11 30 18 59 16 64 -2 6 -11 -13
-20 -41z"/>
<path d="M1279 964 c19 -9 57 -17 85 -19 48 -4 47 -4 -24 15 -89 23 -108 24
-61 4z"/>
<path d="M1423 938 c-2 -5 31 -7 74 -7 82 2 75 6 -15 11 -30 2 -56 0 -59 -4z"/>
<path d="M1588 943 c6 -2 18 -2 25 0 6 3 1 5 -13 5 -14 0 -19 -2 -12 -5z"/>
<path d="M2092 831 c-16 -39 -29 -54 -62 -71 -23 -12 -40 -23 -37 -26 2 -2 17
2 33 10 30 16 45 13 26 -6 -14 -14 -16 -28 -4 -28 5 0 14 16 22 35 8 19 16 35
20 35 7 0 32 91 27 97 -2 2 -13 -19 -25 -46z"/>
<path d="M1147 724 c-9 -9 101 -142 124 -149 10 -4 51 -5 90 -4 53 2 73 -1 79
-12 5 -8 10 -69 12 -136 3 -137 9 -129 -67 -97 -32 13 -85 81 -85 109 0 25
-44 35 -149 35 -95 0 -161 -13 -161 -31 0 -5 -7 -9 -15 -9 -9 0 -30 -7 -46
-16 -26 -13 -30 -19 -24 -42 3 -15 22 -43 41 -63 33 -34 34 -37 15 -42 -26 -7
-36 -48 -19 -83 7 -16 29 -39 48 -52 45 -30 48 -40 11 -34 -32 4 -43 -9 -56
-66 -4 -20 -3 -32 4 -32 6 0 11 9 11 20 0 32 22 70 42 70 12 0 18 -7 18 -23 0
-27 34 -67 57 -67 11 0 8 6 -11 21 -26 21 -35 62 -16 74 18 11 10 22 -31 40
-48 22 -69 49 -69 87 0 24 4 28 30 28 17 0 30 3 30 7 0 3 -23 30 -51 60 -28
29 -49 59 -47 66 3 6 24 18 49 26 24 8 49 20 56 27 25 25 224 29 259 6 5 -4
14 -35 20 -70 11 -71 0 -92 -49 -92 -17 0 -27 -5 -27 -15 0 -20 -3 -19 -46 10
-20 14 -46 25 -58 24 -14 0 -16 -2 -6 -6 34 -12 110 -69 110 -83 0 -9 -9 -33
-20 -54 -19 -38 -17 -73 2 -45 6 10 7 7 3 -8 -4 -14 -2 -23 4 -23 6 0 11 5 11
12 0 6 9 2 20 -10 24 -25 25 -25 51 -12 15 8 19 7 19 -5 0 -8 5 -15 12 -15 6
0 4 -7 -5 -18 -10 -10 -17 -21 -17 -24 0 -3 27 -6 59 -7 54 -1 62 2 81 26 18
23 21 37 17 73 -4 32 -3 39 4 25 7 -16 8 -12 7 20 0 22 0 99 1 171 l1 132 65
26 c72 29 144 71 161 94 7 9 16 12 24 7 9 -5 11 -4 6 3 -4 7 -2 13 3 13 6 1
15 2 20 3 5 0 32 17 60 36 29 19 69 46 89 58 20 13 28 21 17 17 -189 -67 -569
-123 -633 -95 -15 7 -45 35 -67 63 -40 51 -56 63 -68 51z"/>
<path d="M3000 680 c-12 -23 -17 -39 -11 -36 12 8 43 68 37 74 -3 2 -14 -15
-26 -38z"/>
<path d="M2191 285 c-67 -88 -171 -156 -242 -157 -23 0 -36 -4 -33 -10 10 -16
83 0 137 30 55 30 143 112 170 160 27 48 14 39 -32 -23z"/>
<path d="M2480 168 c-63 -10 -116 -21 -119 -24 -14 -13 15 -14 80 0 41 8 108
18 149 22 l75 7 -30 -33 -30 -32 25 -17 c13 -9 44 -30 67 -48 23 -18 40 -26
37 -18 -4 8 -20 24 -37 35 -75 47 -74 46 -43 79 54 56 17 62 -174 29z"/>
<path d="M1878 123 c7 -3 16 -2 19 1 4 3 -2 6 -13 5 -11 0 -14 -3 -6 -6z"/>
<path d="M2949 122 c-1 -4 -1 -10 0 -14 0 -5 -6 -8 -15 -8 -13 0 -14 -3 -5
-13 6 -8 9 -16 6 -18 -2 -3 6 -5 18 -6 12 0 16 1 10 4 -7 3 -13 9 -13 15 0 6
7 8 15 4 8 -3 15 -1 15 4 0 6 -6 10 -12 10 -10 0 -10 2 0 9 11 7 11 9 -2 14
-9 4 -17 3 -17 -1z"/>
<path d="M3025 120 c-4 -6 -11 -8 -16 -5 -5 4 -9 1 -9 -4 0 -10 21 -16 42 -12
4 0 4 -7 1 -16 -4 -11 -8 -13 -11 -5 -2 7 -10 12 -19 12 -28 0 -7 -24 24 -26
27 -2 29 0 25 22 -2 13 -9 24 -16 24 -6 0 -4 5 4 10 13 8 13 10 -2 10 -9 0
-20 -5 -23 -10z"/>
<path d="M3171 121 c-8 -5 -10 -14 -6 -20 4 -7 3 -18 -2 -24 -4 -7 -1 -5 9 5
9 10 19 18 22 18 10 0 7 -28 -4 -33 -6 -3 -5 -4 2 -3 18 4 22 40 6 54 -8 6
-19 7 -27 3z"/>
<path d="M3312 97 c-1 -25 3 -33 16 -33 12 0 17 9 18 33 0 24 -4 33 -16 33
-12 0 -17 -9 -18 -33z"/>
<path d="M3369 125 c-2 -6 -4 -21 -4 -35 0 -21 5 -26 33 -28 19 -2 32 1 32 8
0 6 -5 8 -12 4 -9 -6 -9 -3 1 9 14 18 9 47 -10 47 -6 0 -14 -10 -17 -22 -6
-23 -6 -23 -12 2 -3 14 -8 20 -11 15z"/>
<path d="M3510 120 c0 -5 5 -10 11 -10 5 0 7 5 4 10 -3 6 -8 10 -11 10 -2 0
-4 -4 -4 -10z"/>
<path d="M3723 97 c2 -28 6 -33 28 -32 23 0 32 16 19 33 -2 1 -3 7 -4 14 0 6
-11 13 -23 14 -19 3 -21 -1 -20 -29z"/>
<path d="M3811 107 c8 -13 8 -17 1 -13 -6 4 -10 -1 -9 -11 0 -12 10 -18 28
-19 24 -1 26 1 13 13 -18 19 -18 29 0 14 11 -10 14 -7 12 13 -1 20 -6 24 -28
24 -24 -1 -26 -3 -17 -21z"/>
<path d="M3884 112 c4 -13 3 -22 -3 -22 -6 0 -7 -8 -4 -17 6 -15 8 -14 16 5
13 28 31 29 22 2 -4 -13 -2 -20 7 -20 12 0 14 11 9 65 -1 6 -5 4 -10 -4 -8
-13 -12 -13 -27 0 -15 12 -16 12 -10 -9z"/>
<path d="M3088 113 c7 -3 16 -2 19 1 4 3 -2 6 -13 5 -11 0 -14 -3 -6 -6z"/>
<path d="M3125 110 c3 -5 0 -10 -7 -10 -7 0 -19 -9 -26 -20 -16 -27 -5 -25 24
3 26 24 30 37 13 37 -5 0 -7 -4 -4 -10z"/>
<path d="M3228 108 c8 -8 9 -15 1 -25 -8 -9 -8 -13 0 -13 6 0 11 5 11 11 0 8
4 8 13 1 9 -8 12 -5 12 13 0 18 -3 21 -12 13 -9 -7 -13 -7 -13 1 0 6 -5 11
-12 11 -9 0 -9 -3 0 -12z"/>
<path d="M3283 100 c-1 -11 2 -18 8 -15 11 7 12 35 1 35 -4 0 -8 -9 -9 -20z"/>
<path d="M3598 113 c12 -2 22 -11 22 -18 0 -7 -10 -16 -22 -18 -20 -4 -19 -4
5 -6 23 -1 27 3 27 24 0 21 -4 25 -27 24 -24 -2 -25 -2 -5 -6z"/>
<path d="M3455 100 c4 -6 2 -17 -5 -25 -10 -12 -8 -12 14 -2 18 9 22 15 14 24
-13 16 -32 17 -23 3z"/>
<path d="M3538 92 c-31 -19 -39 -39 -10 -23 16 9 51 42 41 40 -2 0 -16 -8 -31
-17z"/>
<path d="M2444 51 c-41 -19 -61 -37 -50 -48 3 -3 13 2 22 12 22 22 58 35 95
35 18 0 28 4 24 10 -9 15 -45 12 -91 -9z"/>
<path d="M1583 3 c15 -2 37 -2 50 0 12 2 0 4 -28 4 -27 0 -38 -2 -22 -4z"/>
</g>
</svg>
